<svg xmlns="http://www.w3.org/2000/svg" viewBox="-25 0 237 237" fill="none" style="filter: drop-shadow(0px 4px 6px rgba(0, 0, 0, 0.1))">
  <defs>
    <linearGradient id="fishBodyGradient" x1="0%" y1="0%" x2="100%" y2="100%">
      <stop offset="0%" stop-color="#4F86FF" />
      <stop offset="100%" stop-color="#1E40AF" />
    </linearGradient>
    <linearGradient id="waveGradient" x1="0%" y1="0%" x2="100%" y2="0%">
      <stop offset="0%" stop-color="#3B82F6" />
      <stop offset="100%" stop-color="#1E40AF" />
    </linearGradient>
  </defs>
  
  <path d="M58.6207 218.545C78.1543 225.746 99.132 225.211 117.226 218.553C136.76 211.359 157.739 211.887 175.84 218.553L170.231 230.583C154.948 224.963 138.12 224.955 122.835 230.591C111.575 234.723 99.754 236.798 87.9266 236.798C76.0992 236.798 64.2717 234.723 53.018 230.577C37.7353 224.955 20.9074 224.949 5.6093 230.583L0 218.553C19.5336 211.359 40.5113 211.887 58.6207 218.545Z" fill="url(#waveGradient)" />
  <path d="M59.4878 192.756C78.8769 199.955 99.6994 199.42 117.66 192.761C137.049 185.568 157.873 186.097 175.84 192.761L170.272 204.795C155.103 199.172 138.399 199.166 123.227 204.801C112.048 208.935 100.315 211.008 88.5747 211.008C76.8348 211.008 65.0948 208.935 53.9243 204.787L59.4878 192.756Z" fill="url(#waveGradient)" />
  
  <path d="M10 220L180 220" stroke="#93C5FD" stroke-width="0.5" stroke-dasharray="5 3" opacity="0.6" />
  <path d="M10 195L180 195" stroke="#93C5FD" stroke-width="0.5" stroke-dasharray="5 3" opacity="0.6" />
  
  <path d="M131.213 175.226C130.409 175.226 129.604 175.109 128.816 174.874C125.858 173.994 123.637 171.555 123.009 168.538L116.748 138.276C96.7439 136.516 63.4729 122.814 30.4701 89.8109C14.966 74.3152 11.7227 57.8892 11.7227 46.8436C11.7227 33.5436 16.5164 20.805 24.545 12.7764C39.4541 -2.13266 74.5269 -8.35945 101.579 18.7015C126.202 43.3237 145.703 78.6144 149.089 104.661L180.34 111.249C183.349 111.877 185.771 114.115 186.651 117.056C187.531 119.998 186.718 123.191 184.539 125.37L137.138 172.77C135.538 174.363 133.401 175.226 131.213 175.226ZM58.7127 16.6315C48.8403 16.6315 40.5771 20.4279 36.3868 24.6182C32.5568 28.4482 28.4755 36.3008 28.4755 46.852C28.4755 54.7213 30.8723 66.5212 42.3119 77.9608C72.2055 107.863 102.007 120.182 118.45 121.649C125.003 122.219 130.601 126.686 132.705 132.996C132.806 133.306 132.889 133.616 132.956 133.943L136.267 149.933L161.744 124.448L144.681 120.853C144.371 120.786 144.061 120.702 143.751 120.601C137.691 118.582 133.275 113.243 132.487 107" fill="url(#fishBodyGradient)" />
  
  <path d="M40 60L160 60M40 100L160 100M40 140L160 140" stroke="#93C5FD" stroke-width="0.5" stroke-dasharray="5 5" opacity="0.4" />
  <path d="M60 40L60 160M100 40L100 160M140 40L140 160" stroke="#93C5FD" stroke-width="0.5" stroke-dasharray="5 5" opacity="0.4" />
  
  <path d="M137.138 77.9524L125.288 66.1022C132.185 59.1966 139.326 47.4554 143.566 39.9044C119.723 28.7163 97.5148 32.7809 97.2718 32.8396L94.0117 16.3969C95.361 16.1287 127.165 10.0444 159.23 29.2778C162.984 31.5322 164.367 36.2924 162.414 40.2145C161.903 41.237 149.801 65.2893 137.138 77.9524Z" fill="url(#fishBodyGradient)" />
  
  <path d="M130 50C135 45 140 40 145 35" stroke="#93C5FD" stroke-width="0.75" fill="none" stroke-dasharray="3 2" />
  <circle cx="145" cy="35" r="1.5" fill="#BFDBFE" />
  
  <path d="M50.7847 143.774C47.8766 143.774 45.1278 142.257 43.6025 139.709C24.4864 107.846 27.9559 83.626 28.1068 82.612L44.6752 85.1681L36.3952 83.8942L44.6836 85.1094C44.6585 85.2854 42.5298 102.172 54.9331 125.697C61.2856 123.794 71.4596 119.956 77.8792 113.536L89.7293 125.387C76.2198 138.896 53.3492 143.447 52.3854 143.64C51.849 143.723 51.3043 143.774 50.7847 143.774Z" fill="url(#fishBodyGradient)" />
  
  <circle cx="65" cy="120" r="1.5" fill="#BFDBFE" />
  <path d="M55 130L75 110" stroke="#93C5FD" stroke-width="0.75" fill="none" stroke-dasharray="3 2" />
  
  <path d="M36.0849 87.0286C31.5258 87.0286 28.5926 86.1654 27.8132 85.9056L32.9003 69.9406C33.4785 70.1333 46.8288 73.4437 66.0204 54.2605C68.6016 51.6792 70.8979 49.0645 72.859 46.5084L86.1841 56.6741C83.7789 59.8336 80.9882 63.0098 77.8789 66.1106C60.2462 83.7183 45.027 87.0286 36.0849 87.0286Z" fill="url(#fishBodyGradient)" />
  
  <path d="M59.1653 43.2064C63.7937 43.2064 67.5459 39.4543 67.5459 34.8258C67.5459 30.1973 63.7937 26.4452 59.1653 26.4452C54.5368 26.4452 50.7847 30.1973 50.7847 34.8258C50.7847 39.4543 54.5368 43.2064 59.1653 43.2064Z" fill="#1E3A8A" />
  
  <circle cx="59.1653" cy="34.8258" r="3" fill="#3B82F6" />
  <circle cx="61.1653" cy="32.8258" r="1" fill="#FFFFFF" />
  
  <path d="M10 180C50 170 90 160 130 150C150 145 170 140 185 135" stroke="#93C5FD" stroke-width="0.5" fill="none" stroke-dasharray="5 3" opacity="0.5" />
  
  <circle cx="40" cy="175" r="0.8" fill="#BFDBFE" />
  <circle cx="80" cy="160" r="0.8" fill="#BFDBFE" />
  <circle cx="120" cy="150" r="0.8" fill="#BFDBFE" />
  <circle cx="160" cy="140" r="0.8" fill="#BFDBFE" />
</svg>